<svg width="18" height="18" viewBox="0 0 18 18" fill="none" xmlns="http://www.w3.org/2000/svg">
<path d="M16.6133 11.3195C16.3657 11.3195 16.165 11.5212 16.165 11.77V15.7705C16.1641 16.5167 15.5626 17.1214 14.8201 17.1221H2.24147C1.49898 17.1214 0.897462 16.5167 0.896587 15.7705V4.0294C0.897462 3.28334 1.49898 2.67861 2.24147 2.67773H6.22182C6.46943 2.67773 6.67011 2.47603 6.67011 2.22717C6.67011 1.97848 6.46943 1.77661 6.22182 1.77661H2.24147C1.00411 1.77802 0.00140092 2.78579 0 4.0294V15.7707C0.00140092 17.0143 1.00411 18.022 2.24147 18.0234H14.8201C16.0575 18.022 17.0602 17.0143 17.0616 15.7707V11.77C17.0616 11.5212 16.8609 11.3195 16.6133 11.3195V11.3195Z" fill="#94ADCF" stroke="#94ADCF" stroke-width="0.3"/>
<path d="M16.884 0.617302C16.0962 -0.174517 14.8189 -0.174517 14.031 0.617302L6.03321 8.65553C5.9784 8.71062 5.93883 8.77891 5.91816 8.85388L4.86643 12.6701C4.82317 12.8265 4.86713 12.9941 4.9813 13.109C5.09565 13.2238 5.26236 13.2679 5.41804 13.2246L9.21505 12.1674C9.28964 12.1467 9.35759 12.1069 9.4124 12.0518L17.4101 4.01338C18.1967 3.22103 18.1967 1.93835 17.4101 1.146L16.884 0.617302ZM7.01 8.9484L13.5556 2.36955L15.6666 4.49122L9.12083 11.0701L7.01 8.9484ZM6.58833 9.79882L8.27486 11.494L5.94198 12.1437L6.58833 9.79882ZM16.7761 3.37626L16.3007 3.8541L14.1895 1.73226L14.6651 1.25442C15.1027 0.814597 15.8123 0.814597 16.2499 1.25442L16.7761 1.78312C17.2131 2.22347 17.2131 2.93609 16.7761 3.37626V3.37626Z" fill="#94ADCF" stroke="#94ADCF" stroke-width="0.3"/>
</svg>
